<svg xmlns="http://www.w3.org/2000/svg" viewBox="0 0 218.58 144.04"><defs><style>.cls-1{fill:#fff;}.cls-2{fill:none;stroke:#1d1d1b;stroke-linecap:round;stroke-linejoin:round;stroke-width:13px;}.cls-3{fill:#f8ecd3;}</style></defs><g id="Layer_2" data-name="Layer 2"><g id="Layer_3" data-name="Layer 3"><path class="cls-1" d="M76.28,9l.13,4.67H68.19V18.8l6,.2v4.65l-6,.39v2.82l8.26.41.32,4.59-13.69.55L63.8,8.13Z"/><path class="cls-1" d="M84.12,6.5,90.44,21,90.11,8l5.8-.32L95,33.73H91l-6.24-14.4-.22,12.82-4.2.28-1-25Z"/><path class="cls-1" d="M118,22.67l-5.12,1.82V33.8L108.19,33l-.86-26h6.5c5,.23,7.5,1.28,7.65,3.13.09,4.46-.2,7.68-.9,9.67A3.62,3.62,0,0,1,118,22.67Zm-5.09-10.44v7.83l2.46-.79c1-.26,1.6-1.59,1.78-4,.16-1.28-.09-2.07-.77-2.36A8,8,0,0,0,112.86,12.23Z"/><path class="cls-1" d="M133.48,33.85l-1.06-5h-6.93l-1.2,4.1-4.76-1,8.44-25,3.25.53,7.43,25.06ZM127,24.06l4.21-.17-1.8-7.41Z"/><path class="cls-1" d="M150.7,32.91l-4.93-7.81,0,0V33.6l-4.5-.48-1-25.86L145.74,7v9.33L151,8.29l4.08,1.32-5.94,10.76,6.18,11.38Z"/><path class="cls-1" d="M13.5,60.31l7.7,0-.33,10.12q-.33,4.91-4.71,5.26a9.12,9.12,0,0,1-4.08-.33c-2.38-.65-3.87-2.4-4.5-5.25a64.27,64.27,0,0,1-.79-17.53,3.16,3.16,0,0,1,2.53-3q5.12-1.28,7.87-.61c2.7.79,4.09,2.46,4.19,5,.05,1.17.05,2.44,0,3.83l-4.49.41c0-.67-.12-1.31-.21-1.94-.19-1.25-.7-1.91-1.52-2a4.48,4.48,0,0,0-2.83.07c-.62.27-1,1.08-1.16,2.42a56.27,56.27,0,0,0,.62,11.86c.36,1.4,1.42,1.94,3.18,1.61,1.07-.16,1.62-.9,1.64-2.21l.12-3-3.4.2Z"/><path class="cls-1" d="M36.49,51l.13,4.67H28.4V60.8l6,.2v4.65l-6,.39v2.82l8.26.41L37,73.86l-13.69.55L24,50.13Z"/><path class="cls-1" d="M46.32,60.31l7.7,0-.33,10.12q-.33,4.91-4.71,5.26a9.12,9.12,0,0,1-4.08-.33q-3.57-1-4.5-5.25a64.27,64.27,0,0,1-.79-17.53,3.16,3.16,0,0,1,2.53-3Q47.26,48.3,50,49c2.69.79,4.09,2.46,4.19,5,0,1.17,0,2.44,0,3.83l-4.49.41c0-.67-.12-1.31-.21-1.94-.19-1.25-.7-1.91-1.52-2a4.48,4.48,0,0,0-2.83.07c-.63.27-1,1.08-1.16,2.42a55.6,55.6,0,0,0,.62,11.86C45,70,46,70.55,47.8,70.22c1.07-.16,1.62-.9,1.64-2.21l.11-3-3.39.2Z"/><path class="cls-1" d="M69.68,75.85,68.63,70.9H61.7L60.5,75l-4.76-1,8.44-25,3.25.53,7.43,25.06ZM63.2,66.06l4.21-.17-1.8-7.41Z"/><path class="cls-1" d="M82,66.24v9.24l-4.66-.39L76.51,49q13.9-1.28,14.12,3.38c.1,4.46-.2,7.65-.89,9.6a3.3,3.3,0,0,1-2.62,2.68l-.31.07L91.44,73l-3,3Zm0-12.33V61q4-.31,4.2-3.93c.18-1.41-.07-2.26-.75-2.54A7.19,7.19,0,0,0,82.07,53.91Z"/><path class="cls-1" d="M106.9,75.85l-1.06-4.95H98.91L97.71,75l-4.76-1,8.44-25,3.25.53,7.43,25.06Zm-6.49-9.79,4.22-.17-1.8-7.41Z"/><path class="cls-1" d="M118.79,48.5,125.12,63l-.33-13,5.8-.32-.87,26.07h-4.07l-6.24-14.4-.22,12.82-4.2.28-1-25Z"/><path class="cls-1" d="M133.91,75l-.27-25.77,6.43.05q7.22.11,7.25,6.51-.45,11.62-1.45,14.59C145.1,72.86,141.11,74.39,133.91,75Zm4.94-20,0,14.12,2.32-.79c.88-.12,1.45-3.53,1.73-10.21.15-1.41-.09-2.29-.74-2.62A5.31,5.31,0,0,0,138.85,55.06Z"/><path class="cls-1" d="M162.61,51l.14,4.67h-8.22V60.8l6,.2v4.65l-6,.39v2.82l8.26.41.32,4.59-13.69.55.71-24.28Z"/><path class="cls-1" d="M178.33,51l.14,4.67h-8.22V60.8l6,.2v4.65l-6,.39v2.82l8.26.41.32,4.59-13.69.55.71-24.28Z"/><path class="cls-1" d="M186.63,66.24v9.24L182,75.09,181.11,49q13.89-1.28,14.12,3.38c.1,4.46-.2,7.65-.9,9.6a3.3,3.3,0,0,1-2.62,2.68l-.31.07L196,73l-3,3Zm0-12.33V61c2.67-.21,4.08-1.52,4.2-3.93.18-1.41-.07-2.26-.74-2.54A7.27,7.27,0,0,0,186.66,53.91Z"/><path class="cls-1" d="M198.67,75l-.28-25.77,6.44.05q7.21.11,7.25,6.51-.47,11.62-1.45,14.59C209.85,72.86,205.87,74.39,198.67,75Zm4.94-20,0,14.12,2.31-.79c.88-.12,1.46-3.53,1.73-10.21.16-1.41-.09-2.29-.73-2.62A5.32,5.32,0,0,0,203.61,55.06Z"/><path class="cls-2" d="M76.28,9l.13,4.67H68.19V18.8l6,.2v4.65l-6,.39v2.82l8.26.41.32,4.59-13.69.55L63.8,8.13Z"/><path class="cls-2" d="M84.12,6.5,90.44,21,90.11,8l5.8-.32L95,33.73H91l-6.24-14.4-.22,12.82-4.2.28-1-25Z"/><path class="cls-2" d="M118,22.67l-5.12,1.82V33.8L108.19,33l-.86-26h6.5c5,.23,7.5,1.28,7.65,3.13.09,4.46-.2,7.68-.9,9.67A3.62,3.62,0,0,1,118,22.67Zm-5.09-10.44v7.83l2.46-.79c1-.26,1.6-1.59,1.78-4,.16-1.28-.09-2.07-.77-2.36A8,8,0,0,0,112.86,12.23Z"/><path class="cls-2" d="M133.48,33.85l-1.06-5h-6.93l-1.2,4.1-4.76-1,8.44-25,3.25.53,7.43,25.06ZM127,24.06l4.21-.17-1.8-7.41Z"/><path class="cls-2" d="M150.7,32.91l-4.93-7.81,0,0V33.6l-4.5-.48-1-25.86L145.74,7v9.33L151,8.29l4.08,1.32-5.94,10.76,6.18,11.38Z"/><path class="cls-2" d="M13.5,60.31l7.7,0-.33,10.12q-.33,4.91-4.71,5.26a9.12,9.12,0,0,1-4.08-.33c-2.38-.65-3.87-2.4-4.5-5.25a64.27,64.27,0,0,1-.79-17.53,3.16,3.16,0,0,1,2.53-3q5.12-1.28,7.87-.61c2.7.79,4.09,2.46,4.19,5,.05,1.17.05,2.44,0,3.83l-4.49.41c0-.67-.12-1.31-.21-1.94-.19-1.25-.7-1.91-1.52-2a4.48,4.48,0,0,0-2.83.07c-.62.27-1,1.08-1.16,2.42a56.27,56.27,0,0,0,.62,11.86c.36,1.4,1.42,1.94,3.18,1.61,1.07-.16,1.62-.9,1.64-2.21l.12-3-3.4.2Z"/><path class="cls-2" d="M36.49,51l.13,4.67H28.4V60.8l6,.2v4.65l-6,.39v2.82l8.26.41L37,73.86l-13.69.55L24,50.13Z"/><path class="cls-2" d="M46.32,60.31l7.7,0-.33,10.12q-.33,4.91-4.71,5.26a9.12,9.12,0,0,1-4.08-.33q-3.57-1-4.5-5.25a64.27,64.27,0,0,1-.79-17.53,3.16,3.16,0,0,1,2.53-3Q47.26,48.3,50,49c2.69.79,4.09,2.46,4.19,5,0,1.17,0,2.44,0,3.83l-4.49.41c0-.67-.12-1.31-.21-1.94-.19-1.25-.7-1.91-1.52-2a4.48,4.48,0,0,0-2.83.07c-.63.27-1,1.08-1.16,2.42a55.6,55.6,0,0,0,.62,11.86C45,70,46,70.55,47.8,70.22c1.07-.16,1.62-.9,1.64-2.21l.11-3-3.39.2Z"/><path class="cls-2" d="M69.68,75.85,68.63,70.9H61.7L60.5,75l-4.76-1,8.44-25,3.25.53,7.43,25.06ZM63.2,66.06l4.21-.17-1.8-7.41Z"/><path class="cls-2" d="M82,66.24v9.24l-4.66-.39L76.51,49q13.9-1.28,14.12,3.38c.1,4.46-.2,7.65-.89,9.6a3.3,3.3,0,0,1-2.62,2.68l-.31.07L91.44,73l-3,3Zm0-12.33V61q4-.31,4.2-3.93c.18-1.41-.07-2.26-.75-2.54A7.19,7.19,0,0,0,82.07,53.91Z"/><path class="cls-2" d="M106.9,75.85l-1.06-4.95H98.91L97.71,75l-4.76-1,8.44-25,3.25.53,7.43,25.06Zm-6.49-9.79,4.22-.17-1.8-7.41Z"/><path class="cls-2" d="M118.79,48.5,125.12,63l-.33-13,5.8-.32-.87,26.07h-4.07l-6.24-14.4-.22,12.82-4.2.28-1-25Z"/><path class="cls-2" d="M133.91,75l-.27-25.77,6.43.05q7.22.11,7.25,6.51-.45,11.62-1.45,14.59C145.1,72.86,141.11,74.39,133.91,75Zm4.94-20,0,14.12,2.32-.79c.88-.12,1.45-3.53,1.73-10.21.15-1.41-.09-2.29-.74-2.62A5.31,5.31,0,0,0,138.85,55.06Z"/><path class="cls-2" d="M162.61,51l.14,4.67h-8.22V60.8l6,.2v4.65l-6,.39v2.82l8.26.41.32,4.59-13.69.55.71-24.28Z"/><path class="cls-2" d="M178.33,51l.14,4.67h-8.22V60.8l6,.2v4.65l-6,.39v2.82l8.26.41.32,4.59-13.69.55.71-24.28Z"/><path class="cls-2" d="M186.63,66.24v9.24L182,75.09,181.11,49q13.89-1.28,14.12,3.38c.1,4.46-.2,7.65-.9,9.6a3.3,3.3,0,0,1-2.62,2.68l-.31.07L196,73l-3,3Zm0-12.33V61c2.67-.21,4.08-1.52,4.2-3.93.18-1.41-.07-2.26-.74-2.54A7.27,7.27,0,0,0,186.66,53.91Z"/><path class="cls-2" d="M198.67,75l-.28-25.77,6.44.05q7.21.11,7.25,6.51-.47,11.62-1.45,14.59C209.85,72.86,205.87,74.39,198.67,75Zm4.94-20,0,14.12,2.31-.79c.88-.12,1.46-3.53,1.73-10.21.16-1.41-.09-2.29-.73-2.62A5.32,5.32,0,0,0,203.61,55.06Z"/><path class="cls-3" d="M76.28,9l.13,4.67H68.19V18.8l6,.2v4.65l-6,.39v2.82l8.26.41.32,4.59-13.69.55L63.8,8.13Z"/><path class="cls-3" d="M84.12,6.5,90.44,21,90.11,8l5.8-.32L95,33.73H91l-6.24-14.4-.22,12.82-4.2.28-1-25Z"/><path class="cls-3" d="M118,22.67l-5.12,1.82V33.8L108.19,33l-.86-26h6.5c5,.23,7.5,1.28,7.65,3.13.09,4.46-.2,7.68-.9,9.67A3.62,3.62,0,0,1,118,22.67Zm-5.09-10.44v7.83l2.46-.79c1-.26,1.6-1.59,1.78-4,.16-1.28-.09-2.07-.77-2.36A8,8,0,0,0,112.86,12.23Z"/><path class="cls-3" d="M133.48,33.85l-1.06-5h-6.93l-1.2,4.1-4.76-1,8.44-25,3.25.53,7.43,25.06ZM127,24.06l4.21-.17-1.8-7.41Z"/><path class="cls-3" d="M150.7,32.91l-4.93-7.81,0,0V33.6l-4.5-.48-1-25.86L145.74,7v9.33L151,8.29l4.08,1.32-5.94,10.76,6.18,11.38Z"/><path class="cls-3" d="M13.5,60.31l7.7,0-.33,10.12q-.33,4.91-4.71,5.26a9.12,9.12,0,0,1-4.08-.33c-2.38-.65-3.87-2.4-4.5-5.25a64.27,64.27,0,0,1-.79-17.53,3.16,3.16,0,0,1,2.53-3q5.12-1.28,7.87-.61c2.7.79,4.09,2.46,4.19,5,.05,1.17.05,2.44,0,3.83l-4.49.41c0-.67-.12-1.31-.21-1.94-.19-1.25-.7-1.91-1.52-2a4.48,4.48,0,0,0-2.83.07c-.62.27-1,1.08-1.16,2.42a56.27,56.27,0,0,0,.62,11.86c.36,1.4,1.42,1.94,3.18,1.61,1.07-.16,1.62-.9,1.64-2.21l.12-3-3.4.2Z"/><path class="cls-3" d="M36.49,51l.13,4.67H28.4V60.8l6,.2v4.65l-6,.39v2.82l8.26.41L37,73.86l-13.69.55L24,50.13Z"/><path class="cls-3" d="M46.32,60.31l7.7,0-.33,10.12q-.33,4.91-4.71,5.26a9.12,9.12,0,0,1-4.08-.33q-3.57-1-4.5-5.25a64.27,64.27,0,0,1-.79-17.53,3.16,3.16,0,0,1,2.53-3Q47.26,48.3,50,49c2.69.79,4.09,2.46,4.19,5,0,1.17,0,2.44,0,3.83l-4.49.41c0-.67-.12-1.31-.21-1.94-.19-1.25-.7-1.91-1.52-2a4.48,4.48,0,0,0-2.83.07c-.63.27-1,1.08-1.16,2.42a55.6,55.6,0,0,0,.62,11.86C45,70,46,70.55,47.8,70.22c1.07-.16,1.62-.9,1.64-2.21l.11-3-3.39.2Z"/><path class="cls-3" d="M69.68,75.85,68.63,70.9H61.7L60.5,75l-4.76-1,8.44-25,3.25.53,7.43,25.06ZM63.2,66.06l4.21-.17-1.8-7.41Z"/><path class="cls-3" d="M82,66.24v9.24l-4.66-.39L76.51,49q13.9-1.28,14.12,3.38c.1,4.46-.2,7.65-.89,9.6a3.3,3.3,0,0,1-2.62,2.68l-.31.07L91.44,73l-3,3Zm0-12.33V61q4-.31,4.2-3.93c.18-1.41-.07-2.26-.75-2.54A7.19,7.19,0,0,0,82.07,53.91Z"/><path class="cls-3" d="M106.9,75.85l-1.06-4.95H98.91L97.71,75l-4.76-1,8.44-25,3.25.53,7.43,25.06Zm-6.49-9.79,4.22-.17-1.8-7.41Z"/><path class="cls-3" d="M118.79,48.5,125.12,63l-.33-13,5.8-.32-.87,26.07h-4.07l-6.24-14.4-.22,12.82-4.2.28-1-25Z"/><path class="cls-3" d="M133.91,75l-.27-25.77,6.43.05q7.22.11,7.25,6.51-.45,11.62-1.45,14.59C145.1,72.86,141.11,74.39,133.91,75Zm4.94-20,0,14.12,2.32-.79c.88-.12,1.45-3.53,1.73-10.21.15-1.41-.09-2.29-.74-2.62A5.31,5.31,0,0,0,138.85,55.06Z"/><path class="cls-3" d="M162.61,51l.14,4.67h-8.22V60.8l6,.2v4.65l-6,.39v2.82l8.26.41.32,4.59-13.69.55.71-24.28Z"/><path class="cls-3" d="M178.33,51l.14,4.67h-8.22V60.8l6,.2v4.65l-6,.39v2.82l8.26.41.32,4.59-13.69.55.71-24.28Z"/><path class="cls-3" d="M186.63,66.24v9.24L182,75.09,181.11,49q13.89-1.28,14.12,3.38c.1,4.46-.2,7.65-.9,9.6a3.3,3.3,0,0,1-2.62,2.68l-.31.07L196,73l-3,3Zm0-12.33V61c2.67-.21,4.08-1.52,4.2-3.93.18-1.41-.07-2.26-.74-2.54A7.27,7.27,0,0,0,186.66,53.91Z"/><path class="cls-3" d="M198.67,75l-.28-25.77,6.44.05q7.21.11,7.25,6.51-.47,11.62-1.45,14.59C209.85,72.86,205.87,74.39,198.67,75Zm4.94-20,0,14.12,2.31-.79c.88-.12,1.46-3.53,1.73-10.21.16-1.41-.09-2.29-.73-2.62A5.32,5.32,0,0,0,203.61,55.06Z"/><path class="cls-1" d="M68,106.35l-.53,6.46-21.67-.15L45,106.74Zm0,7.25-.53,6.52-21.67-.18L45,114Zm1.36,7.51a42.14,42.14,0,0,1-3,9A6.16,6.16,0,0,1,63,132.79a32,32,0,0,1-5.55.74c-3.21.06-5.33-.58-6.38-1.93q-1.11-1.4-2.66-9.88a107.61,107.61,0,0,1-1.93-17.27q-.09-6.66,2.13-8,4-2.69,12.45-3.25,7.49,0,8.91,5.19a35.93,35.93,0,0,1,.73,7.17H63.58c0-.26-.08-.52-.11-.77-.34-1.74-1.52-2.76-3.54-3-2.63-.25-4.57.27-5.83,1.58q-1.26,1.23.42,13.88c.66,4.15,1.13,6.5,1.43,7a2.56,2.56,0,0,0,2.55,1.14,9.86,9.86,0,0,0,2.18-.44A2.92,2.92,0,0,0,62,123.37c.27-.83.47-1.59.62-2.26Z"/><path class="cls-1" d="M81.34,132.59V105.46l-2.84,3.48-5-5.19,8.16-10H89v38.85Z"/><path class="cls-1" d="M91.68,132.59l12.14-30.09-11.72.72-.38-9.39h21.06l.48,8.09-15.16,32Z"/><path class="cls-1" d="M115.58,136.06l2.61-12.91,6.47,2-5.13,12.34Z"/><path class="cls-1" d="M134.5,116.73l-6.78-2.86-.57-20.09h21.14l-.33,9.33-13.2-.66v2.75a16.53,16.53,0,0,1,3.57-.28,19.2,19.2,0,0,1,4.77.54,5,5,0,0,1,3,1.83q3.31,6.58,2.55,16a23.76,23.76,0,0,1-1.14,6.07q-1.6,3.61-8.25,3.61-7.48-.42-10.89-2.26-1.92-.93-1.45-5.61a43,43,0,0,1,1.29-6.93l6.41,1.49c-.65,2.34-.72,3.64-.22,3.92a7.5,7.5,0,0,0,4.29.66c1.54-.12,2.46-.54,2.77-1.25a8.38,8.38,0,0,0,.39-2.09,10.61,10.61,0,0,0-.86-5.61c-.29-.49-1.15-.77-2.57-.84C136,114.29,134.72,115.06,134.5,116.73Z"/><path class="cls-1" d="M165.28,133a11.64,11.64,0,0,1-5.39.46q-5.69-.75-6.8-7.61-2.18-15-1.78-23.87.21-5.54,6.29-7.26,4.14-.94,11.81.88a4.62,4.62,0,0,1,3.81,4.31A91.22,91.22,0,0,1,172,125.4Q170.6,131.63,165.28,133Zm-6.93-27.7a52,52,0,0,0,.75,17c.35,1.89,1.21,3,2.57,3.23q3.21.7,4-2.35a80.42,80.42,0,0,0,.92-17.2c-.22-1.94-.8-3.11-1.74-3.52a7.11,7.11,0,0,0-4.24-.09C159.39,102.56,158.63,103.53,158.35,105.33Z"/><path class="cls-2" d="M68,106.35l-.53,6.46-21.67-.15L45,106.74Zm0,7.25-.53,6.52-21.67-.18L45,114Zm1.36,7.51a42.14,42.14,0,0,1-3,9A6.16,6.16,0,0,1,63,132.79a32,32,0,0,1-5.55.74c-3.21.06-5.33-.58-6.38-1.93q-1.11-1.4-2.66-9.88a107.61,107.61,0,0,1-1.93-17.27q-.09-6.66,2.13-8,4-2.69,12.45-3.25,7.49,0,8.91,5.19a35.93,35.93,0,0,1,.73,7.17H63.58c0-.26-.08-.52-.11-.77-.34-1.74-1.52-2.76-3.54-3-2.63-.25-4.57.27-5.83,1.58q-1.26,1.23.42,13.88c.66,4.15,1.13,6.5,1.43,7a2.56,2.56,0,0,0,2.55,1.14,9.86,9.86,0,0,0,2.18-.44A2.92,2.92,0,0,0,62,123.37c.27-.83.47-1.59.62-2.26Z"/><path class="cls-2" d="M81.34,132.59V105.46l-2.84,3.48-5-5.19,8.16-10H89v38.85Z"/><path class="cls-2" d="M91.68,132.59l12.14-30.09-11.72.72-.38-9.39h21.06l.48,8.09-15.16,32Z"/><path class="cls-2" d="M115.58,136.06l2.61-12.91,6.47,2-5.13,12.34Z"/><path class="cls-2" d="M134.5,116.73l-6.78-2.86-.57-20.09h21.14l-.33,9.33-13.2-.66v2.75a16.53,16.53,0,0,1,3.57-.28,19.2,19.2,0,0,1,4.77.54,5,5,0,0,1,3,1.83q3.31,6.58,2.55,16a23.76,23.76,0,0,1-1.14,6.07q-1.6,3.61-8.25,3.61-7.48-.42-10.89-2.26-1.92-.93-1.45-5.61a43,43,0,0,1,1.29-6.93l6.41,1.49c-.65,2.34-.72,3.64-.22,3.92a7.5,7.5,0,0,0,4.29.66c1.54-.12,2.46-.54,2.77-1.25a8.38,8.38,0,0,0,.39-2.09,10.61,10.61,0,0,0-.86-5.61c-.29-.49-1.15-.77-2.57-.84C136,114.29,134.72,115.06,134.5,116.73Z"/><path class="cls-2" d="M165.28,133a11.64,11.64,0,0,1-5.39.46q-5.69-.75-6.8-7.61-2.18-15-1.78-23.87.21-5.54,6.29-7.26,4.14-.94,11.81.88a4.62,4.62,0,0,1,3.81,4.31A91.22,91.22,0,0,1,172,125.4Q170.6,131.63,165.28,133Zm-6.93-27.7a52,52,0,0,0,.75,17c.35,1.89,1.21,3,2.57,3.23q3.21.7,4-2.35a80.42,80.42,0,0,0,.92-17.2c-.22-1.94-.8-3.11-1.74-3.52a7.11,7.11,0,0,0-4.24-.09C159.39,102.56,158.63,103.53,158.35,105.33Z"/><path class="cls-3" d="M68,106.35l-.53,6.46-21.67-.15L45,106.74Zm0,7.25-.53,6.52-21.67-.18L45,114Zm1.36,7.51a42.14,42.14,0,0,1-3,9A6.16,6.16,0,0,1,63,132.79a32,32,0,0,1-5.55.74c-3.21.06-5.33-.58-6.38-1.93q-1.11-1.4-2.66-9.88a107.61,107.61,0,0,1-1.93-17.27q-.09-6.66,2.13-8,4-2.69,12.45-3.25,7.49,0,8.91,5.19a35.93,35.93,0,0,1,.73,7.17H63.58c0-.26-.08-.52-.11-.77-.34-1.74-1.52-2.76-3.54-3-2.63-.25-4.57.27-5.83,1.58q-1.26,1.23.42,13.88c.66,4.15,1.13,6.5,1.43,7a2.56,2.56,0,0,0,2.55,1.14,9.86,9.86,0,0,0,2.18-.44A2.92,2.92,0,0,0,62,123.37c.27-.83.47-1.59.62-2.26Z"/><path class="cls-3" d="M81.34,132.59V105.46l-2.84,3.48-5-5.19,8.16-10H89v38.85Z"/><path class="cls-3" d="M91.68,132.59l12.14-30.09-11.72.72-.38-9.39h21.06l.48,8.09-15.16,32Z"/><path class="cls-3" d="M115.58,136.06l2.61-12.91,6.47,2-5.13,12.34Z"/><path class="cls-3" d="M134.5,116.73l-6.78-2.86-.57-20.09h21.14l-.33,9.33-13.2-.66v2.75a16.53,16.53,0,0,1,3.57-.28,19.2,19.2,0,0,1,4.77.54,5,5,0,0,1,3,1.83q3.31,6.58,2.55,16a23.76,23.76,0,0,1-1.14,6.07q-1.6,3.61-8.25,3.61-7.48-.42-10.89-2.26-1.92-.93-1.45-5.61a43,43,0,0,1,1.29-6.93l6.41,1.49c-.65,2.34-.72,3.64-.22,3.92a7.5,7.5,0,0,0,4.29.66c1.54-.12,2.46-.54,2.77-1.25a8.38,8.38,0,0,0,.39-2.09,10.61,10.61,0,0,0-.86-5.61c-.29-.49-1.15-.77-2.57-.84C136,114.29,134.72,115.06,134.5,116.73Z"/><path class="cls-3" d="M165.28,133a11.64,11.64,0,0,1-5.39.46q-5.69-.75-6.8-7.61-2.18-15-1.78-23.87.21-5.54,6.29-7.26,4.14-.94,11.81.88a4.62,4.62,0,0,1,3.81,4.31A91.22,91.22,0,0,1,172,125.4Q170.6,131.63,165.28,133Zm-6.93-27.7a52,52,0,0,0,.75,17c.35,1.89,1.21,3,2.57,3.23q3.21.7,4-2.35a80.42,80.42,0,0,0,.92-17.2c-.22-1.94-.8-3.11-1.74-3.52a7.11,7.11,0,0,0-4.24-.09C159.39,102.56,158.63,103.53,158.35,105.33Z"/></g></g></svg>