<?xml version="1.0" encoding="utf-8"?>
<!-- Generator: Adobe Illustrator 26.0.0, SVG Export Plug-In . SVG Version: 6.00 Build 0)  -->
<svg version="1.1" id="Layer_1" xmlns="http://www.w3.org/2000/svg" xmlns:xlink="http://www.w3.org/1999/xlink" x="0px" y="0px"
	 viewBox="0 0 1140 716.1" style="enable-background:new 0 0 1140 716.1;" xml:space="preserve">
<style type="text/css">
	.st0{fill:#5EC4E7;}
	.st1{fill:#E35350;}
	.st2{fill:#CCD626;}
	.st3{fill:#0D7FBC;}
	.st4{fill:#F8ECD3;}
</style>
<g id="Layer_2_00000072242406004273261810000002498329518150425483_">
	<g id="Capa_1">
		<path class="st0" d="M781,294.8c-1.8-0.7-3.4-1.9-4.4-3.6c-3.2-7.5-4.2-16.2-3-26.3c0.3-3.3,1.1-6.5,2.2-9.5
			c1.8-3.7,6.3-5.1,13.3-4.2c7.9,1.4,13.7,3.3,17.2,5.8c2,1.2,2.6,4.3,2,9.2c-0.5,4.5-2.2,10.8-5.1,18.8c-2.2,6.1-3.9,9.6-5.1,10.5
			c-1.7,1.3-4.8,1.7-9.3,1C786.2,296.1,783.6,295.5,781,294.8"/>
		<path class="st1" d="M694.7,658.7c4.1-0.7,7.2-2,9.2-3.9c8.2-9.9,12.7-22.3,13.5-37.1c0.3-5.9-0.1-10.7-1.2-14.4
			c-2.2-5.8-10-9-23.2-9.7c-15-0.1-26.1,1.1-33.3,3.6c-4,1.3-6.1,5.5-6.4,12.8c-0.3,6.7,0.9,16.2,3.6,28.5
			c2.2,9.4,4.3,14.9,6.2,16.5c2.7,2.4,8.2,3.7,16.7,4.1C684.8,659.2,689.8,659.1,694.7,658.7"/>
		<path class="st1" d="M300.6,249.3c4.1-0.7,7.2-2,9.2-3.9c8.2-9.9,12.7-22.3,13.5-37.1c0.3-5.9-0.1-10.7-1.2-14.4
			c-2.2-5.8-10-9-23.2-9.7c-15-0.1-26.1,1.1-33.3,3.6c-4,1.3-6.1,5.5-6.4,12.8c-0.4,6.7,0.9,16.2,3.6,28.5
			c2.2,9.4,4.3,14.9,6.2,16.5c2.7,2.3,8.2,3.7,16.7,4C290.8,249.8,295.7,249.6,300.6,249.3"/>
		<path class="st2" d="M124.9,426.4c-1.7,1.3-3.8,1.9-6,1.9c-8.8-1.6-17.3-6.1-25.8-13.3c-2.8-2.3-5.3-4.9-7.3-7.9
			c-2.2-3.9-0.8-8.8,4.3-14.7c6.1-6.4,11.4-10.4,15.8-12.1c2.3-1,5.5,0.3,9.6,3.9c3.8,3.3,8.5,8.7,14,16.1c4.2,5.7,6.3,9.4,6.4,11.1
			c0.2,2.3-1.4,5.4-4.7,9.1C129.2,422.5,127.1,424.5,124.9,426.4"/>
		<path class="st3" d="M1039.7,200c-1.7,1.3-3.8,1.9-6,1.9c-8.8-1.6-17.4-6-25.8-13.3c-2.8-2.3-5.3-4.9-7.3-7.9
			c-2.2-3.9-0.8-8.8,4.3-14.7c6.1-6.4,11.4-10.4,15.8-12.1c2.3-1,5.6,0.2,9.6,3.9c3.8,3.3,8.5,8.7,14,16.1c4.2,5.8,6.3,9.4,6.4,11.1
			c0.2,2.3-1.4,5.4-4.7,9.1C1044,196.2,1041.9,198.2,1039.7,200"/>
		<path class="st0" d="M376.9,489.6c2.2-1.7,4.9-2.7,7.7-2.7c11.5,1.7,23,7.1,34.2,16.1c3.7,2.8,7.1,6.2,9.9,9.9
			c3.1,5,1.5,11.4-4.9,19.4c-7.7,8.6-14.3,14.1-20,16.5c-3,1.5-7.2-0.1-12.7-4.6c-5.1-4.1-11.5-10.9-19-20.3
			c-5.7-7.3-8.7-12-8.9-14.1c-0.4-3,1.6-7,5.7-12.1C371.4,494.8,374.1,492.1,376.9,489.6"/>
		<path class="st2" d="M1015.5,447.6c2.7-0.8,5.5-0.7,8.1,0.3c10.1,5.8,18.7,15.1,25.9,27.6c2.4,4,4.3,8.3,5.5,12.8
			c1,5.8-2.9,11.2-11.7,16.2c-10.3,5.1-18.5,7.8-24.7,8c-3.3,0.3-6.7-2.7-10.1-9c-3.2-5.7-6.6-14.3-10.2-25.9
			c-2.7-8.9-3.7-14.4-3.1-16.4c0.8-2.9,4.1-6,9.8-9.1C1008.5,450.3,1011.9,448.8,1015.5,447.6"/>
		<path class="st2" d="M596.2,96.2c2.7-0.8,5.5-0.7,8.1,0.3c10.1,5.8,18.7,15,25.9,27.6c2.4,4,4.3,8.3,5.5,12.8
			c1,5.8-2.9,11.2-11.7,16.2c-10.3,5.1-18.5,7.8-24.7,8c-3.3,0.3-6.7-2.7-10.1-9c-3.2-5.7-6.6-14.3-10.2-25.9
			c-2.7-8.9-3.7-14.4-3.1-16.4c0.8-2.9,4.1-6,9.8-9.1C589.2,99,592.7,97.5,596.2,96.2"/>
		<path class="st0" d="M202.3,681.8c0.2-1.1,0.7-2,1.6-2.8c4.3-2.6,9.2-4,14.2-4.1c1.8-0.1,3.7,0,5.5,0.4c2.2,0.7,3.4,3,3.5,7
			c-0.1,4.5-0.6,7.8-1.6,10c-0.5,1.2-2.1,1.8-4.9,1.9c-3.6,0-7.2-0.4-10.8-1.1c-3.6-0.7-5.7-1.3-6.2-1.9c-0.9-0.8-1.4-2.5-1.4-5
			C202.1,684.8,202.2,683.3,202.3,681.8"/>
		<path class="st4" d="M452.3,656.4c0.2-1.1,0.7-2,1.5-2.8c4.3-2.6,9.2-4,14.2-4.1c1.8-0.1,3.7,0,5.5,0.4c2.2,0.7,3.4,3,3.5,7
			c-0.1,4.5-0.6,7.8-1.6,10c-0.5,1.2-2.1,1.8-4.9,1.9c-3.6,0-7.3-0.4-10.8-1.1c-3.6-0.7-5.6-1.3-6.2-1.8c-0.9-0.8-1.4-2.5-1.4-5
			C452,659.4,452.1,657.9,452.3,656.4"/>
		<path class="st1" d="M898.1,643.5c1.8-0.3,3.7-0.1,5.4,0.5c5.4,3.2,9.3,8.4,10.8,14.5c0.7,2.1,0.9,4.3,0.6,6.4
			c-0.7,2.8-4.7,5.2-11.9,7.2c-8.2,2-14.5,2.9-18.7,2.7c-2.3,0-3.9-1.6-4.7-4.8c-0.8-2.9-1-7.2-0.5-12.9c0.4-4.4,1-7.1,1.9-8
			c1.3-1.4,4.2-2.7,8.9-3.9C893.8,644.3,896.5,643.8,898.1,643.5"/>
		<path class="st4" d="M846.2,511.4c-1-0.4-1.9-1.1-2.5-2c-1.9-4.7-2.5-9.7-1.7-14.7c0.2-1.8,0.6-3.6,1.2-5.3c1-2.1,3.5-2.8,7.5-2.3
			c4.4,0.8,7.6,1.9,9.6,3.2c1.1,0.7,1.5,2.4,1.1,5.2c-0.6,3.6-1.5,7.1-2.8,10.5c-1.2,3.4-2.2,5.4-2.8,5.9c-0.9,0.7-2.7,0.9-5.2,0.6
			C849,512.1,847.6,511.8,846.2,511.4"/>
		<path class="st4" d="M353.2,46.3c-1-0.4-1.9-1.1-2.5-2c-1.9-4.7-2.5-9.7-1.7-14.7c0.2-1.8,0.6-3.6,1.3-5.3c1-2,3.5-2.8,7.4-2.4
			c4.4,0.8,7.6,1.9,9.6,3.2c1.1,0.7,1.5,2.4,1.1,5.2c-0.6,3.6-1.5,7.1-2.8,10.5c-1.2,3.4-2.2,5.3-2.9,5.8c-0.9,0.7-2.7,0.9-5.2,0.6
			C356.1,47,354.6,46.7,353.2,46.3"/>
	</g>
</g>
</svg>
