<svg xmlns="http://www.w3.org/2000/svg" viewBox="0 0 68.18 61.65"><defs><style>.cls-1{fill:#e35350;}.cls-2{fill:#ffda00;}.cls-3{fill:#1a80ba;}.cls-4{fill:#ccd626;}.cls-5{fill:#5ec4e7;}</style></defs><g id="Layer_2" data-name="Layer 2"><g id="Layer_1-2" data-name="Layer 1"><path class="cls-1" d="M5.12,39.3V34.51L3,34.73v4L.83,38.44.48,25.89,3,25.64V31.9L5.12,32V26.18l2.56.17L7.35,39.12Z"/><path class="cls-2" d="M14.91,39.42l-.53-2.5h-3.5L10.28,39l-2.41-.48,4.26-12.6,1.64.27,3.75,12.64Zm-3.27-4.94,2.12-.09-.9-3.74Z"/><path class="cls-3" d="M23,33.78l-2.58.92v4.7L18,39,17.6,25.89h3.28c2.5.12,3.78.64,3.86,1.58a15.5,15.5,0,0,1-.45,4.88A1.84,1.84,0,0,1,23,33.78Zm-2.57-5.27v3.95l1.24-.39q.77-.21.9-2c.08-.65-.05-1-.39-1.19A4,4,0,0,0,20.39,28.51Z"/><path class="cls-4" d="M30.52,33.78l-2.58.92v4.7L25.6,39l-.44-13.11h3.28c2.5.12,3.79.64,3.86,1.58a15.21,15.21,0,0,1-.45,4.88A1.83,1.83,0,0,1,30.52,33.78ZM28,28.51v3.95l1.24-.39c.5-.14.8-.81.89-2,.08-.65,0-1-.38-1.19A4,4,0,0,0,28,28.51Z"/><path class="cls-2" d="M33.32,28.47l-.25-3.31,2.56.1-.2,3.3Zm.24,10.9-.45-9.76,2.55-.29v9.46Z"/><path class="cls-1" d="M39.16,25.62l3.19,7.32-.17-6.57,2.93-.16-.44,13.15H42.62L39.47,32.1l-.11,6.46-2.12.14-.5-12.61Z"/><path class="cls-2" d="M52.44,26.89l.07,2.35H48.36v2.59l3,.1v2.35l-3,.19v1.42l4.17.21.16,2.31-6.91.28.36-12.25Z"/><path class="cls-4" d="M57.18,31.43q4.56,1.71,2.38,6.68a1.62,1.62,0,0,1-1.14.9,7.93,7.93,0,0,1-2.25.25c-1.28-.06-2.05-.27-2.3-.65a4.39,4.39,0,0,1-.75-2.52,5.22,5.22,0,0,1,.51-2.18l2.06.26a1.88,1.88,0,0,0-.18,2c.14.26.48.38,1,.38a2.47,2.47,0,0,0,1.11-.15.66.66,0,0,0,.46-.52A1.55,1.55,0,0,0,56.94,34c-2.52-1.16-3.81-2.46-3.85-3.9,0-1.72.19-2.73.64-3A6.68,6.68,0,0,1,57.15,26c1.5,0,2.4.58,2.69,1.74a10.83,10.83,0,0,1,0,3.14L58,30.94c0-.43,0-.79-.08-1.09a1.2,1.2,0,0,0-1.05-1.16,1.3,1.3,0,0,0-1.44,1C55.25,30.22,55.84,30.79,57.18,31.43Z"/><path class="cls-3" d="M64.75,31.42q4.56,1.71,2.37,6.68A1.62,1.62,0,0,1,66,39a7.88,7.88,0,0,1-2.25.26c-1.28-.06-2-.28-2.29-.65a4.33,4.33,0,0,1-.76-2.52,5.19,5.19,0,0,1,.51-2.18l2.06.25a1.9,1.9,0,0,0-.17,2c.13.26.47.39,1,.38a2.61,2.61,0,0,0,1.12-.14.68.68,0,0,0,.45-.53A1.55,1.55,0,0,0,64.5,34q-3.78-1.74-3.85-3.89c0-1.72.2-2.73.65-3A6.52,6.52,0,0,1,64.71,26c1.51,0,2.41.58,2.7,1.75a11.27,11.27,0,0,1,0,3.14l-1.92.09a9.83,9.83,0,0,0-.08-1.09,1.19,1.19,0,0,0-1-1.16,1.29,1.29,0,0,0-1.43,1C62.81,30.21,63.41,30.79,64.75,31.42Z"/><path class="cls-2" d="M.63,22.16.18,2,4.7,1.52,4.23,17.67h6.3l0,3.87Z"/><path class="cls-5" d="M20.54.41A3.55,3.55,0,0,1,22.43,1.9a30.67,30.67,0,0,1,2.42,12.87,22.42,22.42,0,0,1-.42,4.86c-.53,1.93-2.18,2.9-5,2.9-3.14-.22-5.46-.83-6.94-1.83q-1.25-.75-1.2-4.47A60.3,60.3,0,0,1,12.4,6.59c.58-3.15,1.07-5,1.49-5.51C14.47.33,15.66,0,17.45,0A18.88,18.88,0,0,1,20.54.41ZM18,4.56a1.42,1.42,0,0,0-1.42.63,22.53,22.53,0,0,0-.8,3.92q-.93,7.07-.24,7.76a3.81,3.81,0,0,0,3.26.88,2.06,2.06,0,0,0,2-1.69A19.58,19.58,0,0,0,21,13.21,26.12,26.12,0,0,0,20,5.67a1.65,1.65,0,0,0-.77-.87A5.29,5.29,0,0,0,18,4.56Z"/><path class="cls-1" d="M28.91,22.16,28.7,6.4h-4l-.07-4,12.23-.7L36.68,6.4H33l-.28,15.28Z"/><path class="cls-5" d="M51.72.41a3.62,3.62,0,0,1,1.91,1.51,31.21,31.21,0,0,1,2.44,13,22.21,22.21,0,0,1-.43,4.91q-.8,2.92-5,2.92c-3.18-.22-5.51-.84-7-1.85-.83-.5-1.23-2-1.2-4.51A60.3,60.3,0,0,1,43.5,6.66q.87-4.78,1.5-5.57C45.59.33,46.78,0,48.59,0A19.4,19.4,0,0,1,51.72.41ZM49.19,4.6a1.46,1.46,0,0,0-1.44.64,24.12,24.12,0,0,0-.8,4Q46,16.34,46.71,17a3.86,3.86,0,0,0,3.28.89,2.09,2.09,0,0,0,2-1.71,20,20,0,0,0,.16-2.87,25.8,25.8,0,0,0-1-7.61,1.62,1.62,0,0,0-.76-.88A5.52,5.52,0,0,0,49.19,4.6Z"/><path class="cls-4" d="M57.4,22.23,56.87,1.62H68.18l-.44,4.17-6.6.4V9.54h5l-.3,3.88-4.65.69v8Z"/><path class="cls-5" d="M.39,61.05,0,42.85l3.91-.4L3.5,57H9l0,3.49Z"/><path class="cls-5" d="M17.14,43.42a2.82,2.82,0,0,1,1.53,1.21,24.93,24.93,0,0,1,2,10.43A18.77,18.77,0,0,1,20.3,59c-.44,1.56-1.78,2.35-4,2.35a11.9,11.9,0,0,1-5.63-1.48c-.67-.41-1-1.62-1-3.63a48.21,48.21,0,0,1,.88-7.81c.46-2.56.86-4,1.2-4.46.47-.61,1.43-.9,2.88-.88A14.67,14.67,0,0,1,17.14,43.42Zm-2,3.36A1.17,1.17,0,0,0,14,47.3a18.91,18.91,0,0,0-.65,3.17c-.5,3.82-.57,5.92-.19,6.29a3.1,3.1,0,0,0,2.64.72,1.69,1.69,0,0,0,1.6-1.38,15.59,15.59,0,0,0,.13-2.3,20.77,20.77,0,0,0-.78-6.11A1.31,1.31,0,0,0,16.1,47,4.7,4.7,0,0,0,15.11,46.78Z"/><path class="cls-5" d="M24.92,61,24.74,47.4H21.26L21.2,44l10.55-.6-.12,4H28.42l-.24,13.18Z"/><path class="cls-5" d="M41.44,44.69l.09,3.18H35.94v3.48l4.1.13v3.16l-4.1.26v1.92l5.62.28.21,3.11-9.3.38L33,44.1Z"/><path class="cls-5" d="M46.56,55v6.28l-3.16-.27-.59-17.7q9.44-.87,9.59,2.3a19.85,19.85,0,0,1-.61,6.51A2.24,2.24,0,0,1,50,54l-.21,0L53,59.62l-2,2Zm0-8.38v4.81q2.73-.22,2.85-2.67c.12-1,0-1.54-.5-1.73A5,5,0,0,0,46.58,46.66Z"/><path class="cls-5" d="M54,46.82l-.34-4.45,3.44.13L56.79,47Zm.32,14.68-.61-13.14L57.1,48V60.7Z"/><path class="cls-5" d="M67.6,59a2.19,2.19,0,0,1-1.89,2,10.63,10.63,0,0,1-4.8.38q-2.8-.77-2.91-3.28a38.93,38.93,0,0,1,.22-5.77h2.93a18.46,18.46,0,0,0,.13,4.26c.15.83.45,1.28.92,1.34a1.46,1.46,0,0,0,1.26-.06c.47-.18.75-.71.86-1.6A94.77,94.77,0,0,0,63.91,44l3.25-.6Q68.23,54,67.6,59Z"/></g></g></svg>