<svg xmlns="http://www.w3.org/2000/svg" viewBox="0 0 270.48 112.25"><defs><style>.cls-1{fill:#fff;}.cls-2{fill:none;stroke:#1d1d1b;stroke-linecap:round;stroke-linejoin:round;stroke-width:13px;}.cls-3{fill:#ccd626;}</style></defs><g id="Layer_2" data-name="Layer 2"><g id="Layer_3" data-name="Layer 3"><path class="cls-1" d="M12,22.6l0,12.83-4.57-.56L6.5,9.11l4.41-1.45,5.34,14L21.78,6.5l4.35.57L25,33.82l-4.29.63V21.16l-3.18,9.36L15,30.58Z"/><path class="cls-1" d="M42.36,35.8l-1.11-5.22H34L32.68,34.9l-5-1L36.56,7.58,40,8.14l7.83,26.41ZM35.52,25.49,40,25.3l-1.9-7.81Z"/><path class="cls-1" d="M63.6,35.8l-1.11-5.22h-7.3L53.92,34.9l-5-1L57.8,7.58l3.42.56,7.83,26.41ZM56.76,25.49l4.45-.19-1.9-7.81Z"/><path class="cls-1" d="M81.76,34.81l-5.21-8.23,0,0v8.93L71.79,35l-1-27.24,5.77-.25v9.84L82.1,8.86l4.3,1.39L80.14,21.6l6.51,12Z"/><path class="cls-1" d="M102.92,7l6.67,15.28-.35-13.72,6.11-.34-.91,27.47h-4.29L103.57,20.5,103.34,34l-4.43.29L97.88,8Z"/><path class="cls-1" d="M133.61,30.22q-.17,3.91-4.71,5.08c-1.81.38-4.36.17-7.65-.65q-2.46-.57-3-4.13-.81-6.59.47-22.38l5.36.4q-1.22,14.3-.77,18.8c.16,1.36.59,2.18,1.29,2.47a3,3,0,0,0,2,.14,2.25,2.25,0,0,0,1.73-2.07q.82-5.07-.78-17.81l5.26-.71A142.28,142.28,0,0,1,133.61,30.22Z"/><path class="cls-1" d="M155.4,34.81l-5.2-8.23,0,0v8.93L145.43,35l-1-27.24,5.78-.25v9.84l5.57-8.51,4.3,1.39L153.78,21.6l6.51,12Z"/><path class="cls-1" d="M176.64,35.8l-1.11-5.22h-7.3L167,34.9l-5-1,8.9-26.32,3.42.56,7.83,26.41ZM169.8,25.49l4.45-.19-1.9-7.81Z"/><path class="cls-1" d="M189.18,7l6.66,15.28-.35-13.72,6.11-.34-.91,27.47H196.4L189.82,20.5,189.59,34l-4.43.29L184.13,8Z"/><path class="cls-1" d="M212.53,19.1q9.53,3.55,5,13.95a3.41,3.41,0,0,1-2.38,1.88,16.71,16.71,0,0,1-4.69.53q-4-.2-4.8-1.36A9.14,9.14,0,0,1,204,28.84a10.86,10.86,0,0,1,1.07-4.56l4.3.54a4,4,0,0,0-.37,4.11c.29.54,1,.81,2.12.8a5.25,5.25,0,0,0,2.33-.31,1.39,1.39,0,0,0,1-1.09A3.26,3.26,0,0,0,212,24.44q-7.91-3.63-8-8.14-.06-5.38,1.34-6.33a14,14,0,0,1,7.14-2.28q4.71,0,5.63,3.64a23.6,23.6,0,0,1,.08,6.56l-4,.19a21,21,0,0,0-.17-2.27,2.49,2.49,0,0,0-2.19-2.43c-1.69,0-2.68.73-3,2.12Q208.34,17.11,212.53,19.1Z"/><path class="cls-1" d="M241.43,7.64a4.39,4.39,0,0,1,2.38,1.88q3,6.65,3,16.18a28.4,28.4,0,0,1-.52,6.11c-.67,2.43-2.76,3.65-6.25,3.65q-5.94-.42-8.74-2.3-1.56-.94-1.5-5.62a76.41,76.41,0,0,1,1.36-12.12q1.08-6,1.87-6.93c.73-1,2.22-1.4,4.47-1.36A25.3,25.3,0,0,1,241.43,7.64Zm-3.14,5.22a1.83,1.83,0,0,0-1.8.8,29.21,29.21,0,0,0-1,4.93q-1.17,8.88-.29,9.75a4.75,4.75,0,0,0,4.09,1.11,2.58,2.58,0,0,0,2.48-2.13,24.39,24.39,0,0,0,.2-3.58,32.55,32.55,0,0,0-1.2-9.48,2,2,0,0,0-1-1.09A6.22,6.22,0,0,0,238.29,12.86Z"/><path class="cls-1" d="M260.24,24l-5.39,1.91v9.82L250,34.93l-.91-27.4h6.85c5.22.25,7.9,1.35,8.06,3.31.1,4.69-.21,8.09-.94,10.18A3.83,3.83,0,0,1,260.24,24Zm-5.36-11v8.26l2.6-.83c1-.28,1.68-1.68,1.86-4.2.18-1.35-.09-2.18-.8-2.49A8.55,8.55,0,0,0,254.88,13Z"/><path class="cls-2" d="M12,22.6l0,12.83-4.57-.56L6.5,9.11l4.41-1.45,5.34,14L21.78,6.5l4.35.57L25,33.82l-4.29.63V21.16l-3.18,9.36L15,30.58Z"/><path class="cls-2" d="M42.36,35.8l-1.11-5.22H34L32.68,34.9l-5-1L36.56,7.58,40,8.14l7.83,26.41ZM35.52,25.49,40,25.3l-1.9-7.81Z"/><path class="cls-2" d="M63.6,35.8l-1.11-5.22h-7.3L53.92,34.9l-5-1L57.8,7.58l3.42.56,7.83,26.41ZM56.76,25.49l4.45-.19-1.9-7.81Z"/><path class="cls-2" d="M81.76,34.81l-5.21-8.23,0,0v8.93L71.79,35l-1-27.24,5.77-.25v9.84L82.1,8.86l4.3,1.39L80.14,21.6l6.51,12Z"/><path class="cls-2" d="M102.92,7l6.67,15.28-.35-13.72,6.11-.34-.91,27.47h-4.29L103.57,20.5,103.34,34l-4.43.29L97.88,8Z"/><path class="cls-2" d="M133.61,30.22q-.17,3.91-4.71,5.08c-1.81.38-4.36.17-7.65-.65q-2.46-.57-3-4.13-.81-6.59.47-22.38l5.36.4q-1.22,14.3-.77,18.8c.16,1.36.59,2.18,1.29,2.47a3,3,0,0,0,2,.14,2.25,2.25,0,0,0,1.73-2.07q.82-5.07-.78-17.81l5.26-.71A142.28,142.28,0,0,1,133.61,30.22Z"/><path class="cls-2" d="M155.4,34.81l-5.2-8.23,0,0v8.93L145.43,35l-1-27.24,5.78-.25v9.84l5.57-8.51,4.3,1.39L153.78,21.6l6.51,12Z"/><path class="cls-2" d="M176.64,35.8l-1.11-5.22h-7.3L167,34.9l-5-1,8.9-26.32,3.42.56,7.83,26.41ZM169.8,25.49l4.45-.19-1.9-7.81Z"/><path class="cls-2" d="M189.18,7l6.66,15.28-.35-13.72,6.11-.34-.91,27.47H196.4L189.82,20.5,189.59,34l-4.43.29L184.13,8Z"/><path class="cls-2" d="M212.53,19.1q9.53,3.55,5,13.95a3.41,3.41,0,0,1-2.38,1.88,16.71,16.71,0,0,1-4.69.53q-4-.2-4.8-1.36A9.14,9.14,0,0,1,204,28.84a10.86,10.86,0,0,1,1.07-4.56l4.3.54a4,4,0,0,0-.37,4.11c.29.54,1,.81,2.12.8a5.25,5.25,0,0,0,2.33-.31,1.39,1.39,0,0,0,1-1.09A3.26,3.26,0,0,0,212,24.44q-7.91-3.63-8-8.14-.06-5.38,1.34-6.33a14,14,0,0,1,7.14-2.28q4.71,0,5.63,3.64a23.6,23.6,0,0,1,.08,6.56l-4,.19a21,21,0,0,0-.17-2.27,2.49,2.49,0,0,0-2.19-2.43c-1.69,0-2.68.73-3,2.12Q208.34,17.11,212.53,19.1Z"/><path class="cls-2" d="M241.43,7.64a4.39,4.39,0,0,1,2.38,1.88q3,6.65,3,16.18a28.4,28.4,0,0,1-.52,6.11c-.67,2.43-2.76,3.65-6.25,3.65q-5.94-.42-8.74-2.3-1.56-.94-1.5-5.62a76.41,76.41,0,0,1,1.36-12.12q1.08-6,1.87-6.93c.73-1,2.22-1.4,4.47-1.36A25.3,25.3,0,0,1,241.43,7.64Zm-3.14,5.22a1.83,1.83,0,0,0-1.8.8,29.21,29.21,0,0,0-1,4.93q-1.17,8.88-.29,9.75a4.75,4.75,0,0,0,4.09,1.11,2.58,2.58,0,0,0,2.48-2.13,24.39,24.39,0,0,0,.2-3.58,32.55,32.55,0,0,0-1.2-9.48,2,2,0,0,0-1-1.09A6.22,6.22,0,0,0,238.29,12.86Z"/><path class="cls-2" d="M260.24,24l-5.39,1.91v9.82L250,34.93l-.91-27.4h6.85c5.22.25,7.9,1.35,8.06,3.31.1,4.69-.21,8.09-.94,10.18A3.83,3.83,0,0,1,260.24,24Zm-5.36-11v8.26l2.6-.83c1-.28,1.68-1.68,1.86-4.2.18-1.35-.09-2.18-.8-2.49A8.55,8.55,0,0,0,254.88,13Z"/><path class="cls-3" d="M12,22.6l0,12.83-4.57-.56L6.5,9.11l4.41-1.45,5.34,14L21.78,6.5l4.35.57L25,33.82l-4.29.63V21.16l-3.18,9.36L15,30.58Z"/><path class="cls-3" d="M42.36,35.8l-1.11-5.22H34L32.68,34.9l-5-1L36.56,7.58,40,8.14l7.83,26.41ZM35.52,25.49,40,25.3l-1.9-7.81Z"/><path class="cls-3" d="M63.6,35.8l-1.11-5.22h-7.3L53.92,34.9l-5-1L57.8,7.58l3.42.56,7.83,26.41ZM56.76,25.49l4.45-.19-1.9-7.81Z"/><path class="cls-3" d="M81.76,34.81l-5.21-8.23,0,0v8.93L71.79,35l-1-27.24,5.77-.25v9.84L82.1,8.86l4.3,1.39L80.14,21.6l6.51,12Z"/><path class="cls-3" d="M102.92,7l6.67,15.28-.35-13.72,6.11-.34-.91,27.47h-4.29L103.57,20.5,103.34,34l-4.43.29L97.88,8Z"/><path class="cls-3" d="M133.61,30.22q-.17,3.91-4.71,5.08c-1.81.38-4.36.17-7.65-.65q-2.46-.57-3-4.13-.81-6.59.47-22.38l5.36.4q-1.22,14.3-.77,18.8c.16,1.36.59,2.18,1.29,2.47a3,3,0,0,0,2,.14,2.25,2.25,0,0,0,1.73-2.07q.82-5.07-.78-17.81l5.26-.71A142.28,142.28,0,0,1,133.61,30.22Z"/><path class="cls-3" d="M155.4,34.81l-5.2-8.23,0,0v8.93L145.43,35l-1-27.24,5.78-.25v9.84l5.57-8.51,4.3,1.39L153.78,21.6l6.51,12Z"/><path class="cls-3" d="M176.64,35.8l-1.11-5.22h-7.3L167,34.9l-5-1,8.9-26.32,3.42.56,7.83,26.41ZM169.8,25.49l4.45-.19-1.9-7.81Z"/><path class="cls-3" d="M189.18,7l6.66,15.28-.35-13.72,6.11-.34-.91,27.47H196.4L189.82,20.5,189.59,34l-4.43.29L184.13,8Z"/><path class="cls-3" d="M212.53,19.1q9.53,3.55,5,13.95a3.41,3.41,0,0,1-2.38,1.88,16.71,16.71,0,0,1-4.69.53q-4-.2-4.8-1.36A9.14,9.14,0,0,1,204,28.84a10.86,10.86,0,0,1,1.07-4.56l4.3.54a4,4,0,0,0-.37,4.11c.29.54,1,.81,2.12.8a5.25,5.25,0,0,0,2.33-.31,1.39,1.39,0,0,0,1-1.09A3.26,3.26,0,0,0,212,24.44q-7.91-3.63-8-8.14-.06-5.38,1.34-6.33a14,14,0,0,1,7.14-2.28q4.71,0,5.63,3.64a23.6,23.6,0,0,1,.08,6.56l-4,.19a21,21,0,0,0-.17-2.27,2.49,2.49,0,0,0-2.19-2.43c-1.69,0-2.68.73-3,2.12Q208.34,17.11,212.53,19.1Z"/><path class="cls-3" d="M241.43,7.64a4.39,4.39,0,0,1,2.38,1.88q3,6.65,3,16.18a28.4,28.4,0,0,1-.52,6.11c-.67,2.43-2.76,3.65-6.25,3.65q-5.94-.42-8.74-2.3-1.56-.94-1.5-5.62a76.41,76.41,0,0,1,1.36-12.12q1.08-6,1.87-6.93c.73-1,2.22-1.4,4.47-1.36A25.3,25.3,0,0,1,241.43,7.64Zm-3.14,5.22a1.83,1.83,0,0,0-1.8.8,29.21,29.21,0,0,0-1,4.93q-1.17,8.88-.29,9.75a4.75,4.75,0,0,0,4.09,1.11,2.58,2.58,0,0,0,2.48-2.13,24.39,24.39,0,0,0,.2-3.58,32.55,32.55,0,0,0-1.2-9.48,2,2,0,0,0-1-1.09A6.22,6.22,0,0,0,238.29,12.86Z"/><path class="cls-3" d="M260.24,24l-5.39,1.91v9.82L250,34.93l-.91-27.4h6.85c5.22.25,7.9,1.35,8.06,3.31.1,4.69-.21,8.09-.94,10.18A3.83,3.83,0,0,1,260.24,24Zm-5.36-11v8.26l2.6-.83c1-.28,1.68-1.68,1.86-4.2.18-1.35-.09-2.18-.8-2.49A8.55,8.55,0,0,0,254.88,13Z"/><path class="cls-1" d="M66.39,70.72,65.71,79l-27.87-.19-1.07-7.62Zm0,9.33-.68,8.38L37.84,88.2l-1.07-7.61Zm1.76,9.65a55.49,55.49,0,0,1-3.82,11.57A7.92,7.92,0,0,1,60,104.72a41.25,41.25,0,0,1-7.13,1q-6.2.11-8.21-2.49-1.44-1.78-3.42-12.71-2.49-14.28-2.49-22.21c-.07-5.71.84-9.16,2.75-10.32q5.14-3.47,16-4.19,9.62,0,11.46,6.68a46.63,46.63,0,0,1,.93,9.22H60.73c0-.34-.1-.67-.14-1q-.65-3.37-4.55-3.91-5.07-.48-7.5,2-1.62,1.59.54,17.85,1.28,8,1.84,9.06c.52,1,1.62,1.49,3.28,1.47a12.47,12.47,0,0,0,2.8-.57,3.72,3.72,0,0,0,1.75-2,29.63,29.63,0,0,0,.79-2.91Z"/><path class="cls-1" d="M83.57,104.47V69.58l-3.65,4.47L73.5,67.38,84,54.5h9.36v50Z"/><path class="cls-1" d="M115,105a15,15,0,0,1-6.93.6q-7.31-1-8.74-9.79Q96.54,76.49,97,65.14q.28-7.12,8.1-9.33,5.31-1.23,15.19,1.13,4.22.87,4.89,5.54,1.62,14.55-1.55,32.74Q121.85,103.23,115,105ZM106.1,69.41q-1.39,9.34,1,21.9c.45,2.44,1.56,3.82,3.31,4.16q4.13.91,5.18-3,1.92-13.86,1.19-22.12c-.29-2.49-1-4-2.24-4.53s-3-.6-5.46-.11Q106.64,65.93,106.1,69.41Z"/><path class="cls-1" d="M133,105a4.37,4.37,0,0,1-2.74-.59,8.19,8.19,0,0,1-1.14-2.94,23.09,23.09,0,0,1-.82-5.09c0-1.31.29-2.09.91-2.35a15.06,15.06,0,0,1,5.32-1c2.11,0,3.38.5,3.79,1.52a8.55,8.55,0,0,1,.31,2.58,12,12,0,0,1-1.84,6.79,2.64,2.64,0,0,1-1.44.82C134.9,104.88,134.11,105,133,105Z"/><path class="cls-1" d="M159.78,105a15,15,0,0,1-6.93.6q-7.31-1-8.74-9.79-2.81-19.35-2.3-30.7.28-7.12,8.1-9.33,5.31-1.23,15.19,1.13,4.22.87,4.89,5.54,1.62,14.55-1.55,32.74Q166.63,103.23,159.78,105Zm-8.91-35.62q-1.4,9.34,1,21.9c.45,2.44,1.56,3.82,3.31,4.16q4.13.91,5.18-3,1.92-13.86,1.19-22.12c-.29-2.49-1-4-2.24-4.53s-3-.6-5.46-.11Q151.41,65.93,150.87,69.41Z"/><path class="cls-1" d="M191.19,105a15,15,0,0,1-6.93.6q-7.31-1-8.74-9.79-2.81-19.35-2.29-30.7.27-7.12,8.09-9.33,5.31-1.23,15.19,1.13,4.22.87,4.89,5.54Q203,77,199.85,95.22,198,103.23,191.19,105Zm-8.91-35.62q-1.4,9.34,1,21.9c.45,2.44,1.56,3.82,3.31,4.16,2.76.61,4.48-.4,5.18-3q1.92-13.86,1.19-22.12c-.29-2.49-1-4-2.24-4.53s-3-.6-5.46-.11Q182.82,65.93,182.28,69.41Z"/><path class="cls-1" d="M222.6,105a15,15,0,0,1-6.93.6q-7.3-1-8.74-9.79-2.81-19.35-2.29-30.7.27-7.12,8.09-9.33,5.31-1.23,15.19,1.13,4.22.87,4.89,5.54,1.62,14.55-1.55,32.74Q229.45,103.23,222.6,105Zm-8.91-35.62q-1.38,9.34,1,21.9c.45,2.44,1.56,3.82,3.31,4.16,2.76.61,4.48-.4,5.18-3q1.92-13.86,1.19-22.12c-.29-2.49-1-4-2.24-4.53s-3-.6-5.46-.11Q214.23,65.93,213.69,69.41Z"/><path class="cls-2" d="M66.39,70.72,65.71,79l-27.87-.19-1.07-7.62Zm0,9.33-.68,8.38L37.84,88.2l-1.07-7.61Zm1.76,9.65a55.49,55.49,0,0,1-3.82,11.57A7.92,7.92,0,0,1,60,104.72a41.25,41.25,0,0,1-7.13,1q-6.2.11-8.21-2.49-1.44-1.78-3.42-12.71-2.49-14.28-2.49-22.21c-.07-5.71.84-9.16,2.75-10.32q5.14-3.47,16-4.19,9.62,0,11.46,6.68a46.63,46.63,0,0,1,.93,9.22H60.73c0-.34-.1-.67-.14-1q-.65-3.37-4.55-3.91-5.07-.48-7.5,2-1.62,1.59.54,17.85,1.28,8,1.84,9.06c.52,1,1.62,1.49,3.28,1.47a12.47,12.47,0,0,0,2.8-.57,3.72,3.72,0,0,0,1.75-2,29.63,29.63,0,0,0,.79-2.91Z"/><path class="cls-2" d="M83.57,104.47V69.58l-3.65,4.47L73.5,67.38,84,54.5h9.36v50Z"/><path class="cls-2" d="M115,105a15,15,0,0,1-6.93.6q-7.31-1-8.74-9.79Q96.54,76.49,97,65.14q.28-7.12,8.1-9.33,5.31-1.23,15.19,1.13,4.22.87,4.89,5.54,1.62,14.55-1.55,32.74Q121.85,103.23,115,105ZM106.1,69.41q-1.39,9.34,1,21.9c.45,2.44,1.56,3.82,3.31,4.16q4.13.91,5.18-3,1.92-13.86,1.19-22.12c-.29-2.49-1-4-2.24-4.53s-3-.6-5.46-.11Q106.64,65.93,106.1,69.41Z"/><path class="cls-2" d="M133,105a4.37,4.37,0,0,1-2.74-.59,8.19,8.19,0,0,1-1.14-2.94,23.09,23.09,0,0,1-.82-5.09c0-1.31.29-2.09.91-2.35a15.06,15.06,0,0,1,5.32-1c2.11,0,3.38.5,3.79,1.52a8.55,8.55,0,0,1,.31,2.58,12,12,0,0,1-1.84,6.79,2.64,2.64,0,0,1-1.44.82C134.9,104.88,134.11,105,133,105Z"/><path class="cls-2" d="M159.78,105a15,15,0,0,1-6.93.6q-7.31-1-8.74-9.79-2.81-19.35-2.3-30.7.28-7.12,8.1-9.33,5.31-1.23,15.19,1.13,4.22.87,4.89,5.54,1.62,14.55-1.55,32.74Q166.63,103.23,159.78,105Zm-8.91-35.62q-1.4,9.34,1,21.9c.45,2.44,1.56,3.82,3.31,4.16q4.13.91,5.18-3,1.92-13.86,1.19-22.12c-.29-2.49-1-4-2.24-4.53s-3-.6-5.46-.11Q151.41,65.93,150.87,69.41Z"/><path class="cls-2" d="M191.19,105a15,15,0,0,1-6.93.6q-7.31-1-8.74-9.79-2.81-19.35-2.29-30.7.27-7.12,8.09-9.33,5.31-1.23,15.19,1.13,4.22.87,4.89,5.54Q203,77,199.85,95.22,198,103.23,191.19,105Zm-8.91-35.62q-1.4,9.34,1,21.9c.45,2.44,1.56,3.82,3.31,4.16,2.76.61,4.48-.4,5.18-3q1.92-13.86,1.19-22.12c-.29-2.49-1-4-2.24-4.53s-3-.6-5.46-.11Q182.82,65.93,182.28,69.41Z"/><path class="cls-2" d="M222.6,105a15,15,0,0,1-6.93.6q-7.3-1-8.74-9.79-2.81-19.35-2.29-30.7.27-7.12,8.09-9.33,5.31-1.23,15.19,1.13,4.22.87,4.89,5.54,1.62,14.55-1.55,32.74Q229.45,103.23,222.6,105Zm-8.91-35.62q-1.38,9.34,1,21.9c.45,2.44,1.56,3.82,3.31,4.16,2.76.61,4.48-.4,5.18-3q1.92-13.86,1.19-22.12c-.29-2.49-1-4-2.24-4.53s-3-.6-5.46-.11Q214.23,65.93,213.69,69.41Z"/><path class="cls-3" d="M66.39,70.72,65.71,79l-27.87-.19-1.07-7.62Zm0,9.33-.68,8.38L37.84,88.2l-1.07-7.61Zm1.76,9.65a55.49,55.49,0,0,1-3.82,11.57A7.92,7.92,0,0,1,60,104.72a41.25,41.25,0,0,1-7.13,1q-6.2.11-8.21-2.49-1.44-1.78-3.42-12.71-2.49-14.28-2.49-22.21c-.07-5.71.84-9.16,2.75-10.32q5.14-3.47,16-4.19,9.62,0,11.46,6.68a46.63,46.63,0,0,1,.93,9.22H60.73c0-.34-.1-.67-.14-1q-.65-3.37-4.55-3.91-5.07-.48-7.5,2-1.62,1.59.54,17.85,1.28,8,1.84,9.06c.52,1,1.62,1.49,3.28,1.47a12.47,12.47,0,0,0,2.8-.57,3.72,3.72,0,0,0,1.75-2,29.63,29.63,0,0,0,.79-2.91Z"/><path class="cls-3" d="M83.57,104.47V69.58l-3.65,4.47L73.5,67.38,84,54.5h9.36v50Z"/><path class="cls-3" d="M115,105a15,15,0,0,1-6.93.6q-7.31-1-8.74-9.79Q96.54,76.49,97,65.14q.28-7.12,8.1-9.33,5.31-1.23,15.19,1.13,4.22.87,4.89,5.54,1.62,14.55-1.55,32.74Q121.85,103.23,115,105ZM106.1,69.41q-1.39,9.34,1,21.9c.45,2.44,1.56,3.82,3.31,4.16q4.13.91,5.18-3,1.92-13.86,1.19-22.12c-.29-2.49-1-4-2.24-4.53s-3-.6-5.46-.11Q106.64,65.93,106.1,69.41Z"/><path class="cls-3" d="M133,105a4.37,4.37,0,0,1-2.74-.59,8.19,8.19,0,0,1-1.14-2.94,23.09,23.09,0,0,1-.82-5.09c0-1.31.29-2.09.91-2.35a15.06,15.06,0,0,1,5.32-1c2.11,0,3.38.5,3.79,1.52a8.55,8.55,0,0,1,.31,2.58,12,12,0,0,1-1.84,6.79,2.64,2.64,0,0,1-1.44.82C134.9,104.88,134.11,105,133,105Z"/><path class="cls-3" d="M159.78,105a15,15,0,0,1-6.93.6q-7.31-1-8.74-9.79-2.81-19.35-2.3-30.7.28-7.12,8.1-9.33,5.31-1.23,15.19,1.13,4.22.87,4.89,5.54,1.62,14.55-1.55,32.74Q166.63,103.23,159.78,105Zm-8.91-35.62q-1.4,9.34,1,21.9c.45,2.44,1.56,3.82,3.31,4.16q4.13.91,5.18-3,1.92-13.86,1.19-22.12c-.29-2.49-1-4-2.24-4.53s-3-.6-5.46-.11Q151.41,65.93,150.87,69.41Z"/><path class="cls-3" d="M191.19,105a15,15,0,0,1-6.93.6q-7.31-1-8.74-9.79-2.81-19.35-2.29-30.7.27-7.12,8.09-9.33,5.31-1.23,15.19,1.13,4.22.87,4.89,5.54Q203,77,199.85,95.22,198,103.23,191.19,105Zm-8.91-35.62q-1.4,9.34,1,21.9c.45,2.44,1.56,3.82,3.31,4.16,2.76.61,4.48-.4,5.18-3q1.92-13.86,1.19-22.12c-.29-2.49-1-4-2.24-4.53s-3-.6-5.46-.11Q182.82,65.93,182.28,69.41Z"/><path class="cls-3" d="M222.6,105a15,15,0,0,1-6.93.6q-7.3-1-8.74-9.79-2.81-19.35-2.29-30.7.27-7.12,8.09-9.33,5.31-1.23,15.19,1.13,4.22.87,4.89,5.54,1.62,14.55-1.55,32.74Q229.45,103.23,222.6,105Zm-8.91-35.62q-1.38,9.34,1,21.9c.45,2.44,1.56,3.82,3.31,4.16,2.76.61,4.48-.4,5.18-3q1.92-13.86,1.19-22.12c-.29-2.49-1-4-2.24-4.53s-3-.6-5.46-.11Q214.23,65.93,213.69,69.41Z"/></g></g></svg>